<svg id="brand-lgo" data-name="brand-logo" xmlns="http://www.w3.org/2000/svg" width="432" height="140" viewBox="0 0 432 140"><path class="cls-1" d="M127.943,68.7c0-15.7691-5.714-25.7291-17.5456-25.7291-13.6027,0-24.6441,14.11-24.6441,28.64v51.4579c0,6.2221,3.1586,8.3,16.1728,8.3v5.81H72.352V68.7c0-15.7691-5.7191-25.7291-17.5416-25.7291-13.6071,0-24.6486,14.11-24.6486,28.64v51.4579c0,6.2221,3.16,8.3,15.7754,8.3v5.81H0v-5.81c13.6025,0,16.7657-2.0782,16.7657-8.3V53.7638c0-6.2227-3.1632-8.3015-15.5781-8.3015V39.65l28.7787-1.2421V52.72h.3974c7.0977-9.95,13.7981-15.5643,26.0174-15.5643,14.5884,0,24.2512,7.4716,28.3858,18.8915,6.9023-14.3244,17.9438-18.8915,27.4059-18.8915,18.727,0,29.1755,12.0416,29.1755,30.3024V123.07c0,6.2221,3.1586,8.3,16.167,8.3v5.81H127.943Z"/><path class="cls-1" d="M169.3609,83.7846v6.2892c0,24.316,11.725,43.6366,33.2137,43.6366,18.8877,0,26.2612-8.6857,34.518-20.8374l5.21,3.466c-13.0313,19.1054-23.2344,23.4455-41.4671,23.4455-29.7421,0-47.9691-26.48-47.9691-53.6154,0-31.69,17.5824-53.6027,47.1054-53.6027,26.915,0,42.3308,25.6028,42.3308,51.2182Zm56.4413-6.077c0-17.8-5.4307-39.07-27.57-39.07-19.9692,0-28.8715,20.1877-28.8715,39.07Z"/><path class="cls-1" d="M260.5265,49.925c0-6.5122-3.4763-8.6821-17.1511-8.6821V35.1624L275.292,33.863V59.9073h.429c4.989-12.5873,12.8043-27.3409,28.4346-27.3409,8.6868,0,16.71,5.2007,16.71,14.9747,0,6.506-4.1255,10.6281-9.9783,10.6281-5.8666,0-9.9851-3.2516-9.9851-9.7638a9.1252,9.1252,0,0,1,5.2036-8.6857c-.6561-.8642-1.95-1.0821-3.2481-1.0821-5.6464,0-18.8853,6.5094-24.5305,31.4757-3.0348,13.6713-3.0348,33.8624-3.0348,47.97,0,10.8488,3.4694,13.0223,19.5345,13.0223V137.18h-51.666v-6.0741c13.8893,0,17.3656-2.1735,17.3656-8.6835Z"/><path class="cls-1" d="M372.525,137.18H321.3067v-6.0741c15.1956,0,18.6639-2.1735,18.6639-8.6835V49.925c0-6.5122-3.4683-8.6821-17.15-8.6821V35.1624l31.9109-1.2994v88.5592c0,6.51,3.4752,8.6835,17.7934,8.6835Z"/><path class="cls-1" d="M428.5248,32.5664v6.0712h-32.56v77.0545c0,13.46,6.5157,18.0183,14.11,18.0183,6.2954,0,15.8459-4.7782,15.8459-21.9224v-9.3325H432v7.8185c0,17.3553-8.03,29.5105-25.8356,29.5105-15.8391,0-24.9595-8.6788-24.9595-25.18V38.6376h-16.06V32.5664c18.2293,0,23.4467-17.8095,24.7461-32.5664h6.0741V32.5664Z"/></svg>
